<?xml version="1.0" standalone="no"?>
<!DOCTYPE svg PUBLIC "-//W3C//DTD SVG 1.1//EN" "http://www.w3.org/Graphics/SVG/1.1/DTD/svg11.dtd" >
<svg xmlns="http://www.w3.org/2000/svg" xmlns:xlink="http://www.w3.org/1999/xlink" version="1.1">
<metadata>
Created by FontForge 20161013 at Wed May 29 18:47:49 2013
 By ,,,
Copyright (c) 2013, Eduardo Tunni (http://www.tipo.net.ar edu@tipo.net.ar), with Reserved Font Name 'Pathway'
</metadata>
<defs>
<font id="PathwayGothicOne-Regular" horiz-adv-x="379" >
  <font-face 
    font-family="Pathway Gothic One"
    font-weight="400"
    font-stretch="normal"
    units-per-em="1000"
    panose-1="2 0 5 6 5 0 0 2 0 4"
    ascent="800"
    descent="-200"
    x-height="540"
    cap-height="700"
    bbox="-37 -198 921 954"
    underline-thickness="50"
    underline-position="-150"
    unicode-range="U+0020-FB02"
  />
<missing-glyph horiz-adv-x="144" 
 />
    <glyph glyph-name=".notdef" horiz-adv-x="144" 
 />
    <glyph glyph-name=".null" horiz-adv-x="0" 
 />
    <glyph glyph-name="nonmarkingreturn" horiz-adv-x="333" 
 />
    <glyph glyph-name="space" unicode=" " horiz-adv-x="144" 
 />
    <glyph glyph-name="exclam" unicode="!" horiz-adv-x="200" 
d="M73 167l-17 533h88l-15 -533h-56zM61 0v92h79v-92h-79z" />
    <glyph glyph-name="quotedbl" unicode="&#x22;" horiz-adv-x="301" 
d="M62 496l-14 244h81l-14 -244h-53zM187 496l-15 244h81l-15 -244h-51z" />
    <glyph glyph-name="numbersign" unicode="#" horiz-adv-x="489" 
d="M249 -15l34 226h-122l-34 -226h-62l34 226h-72l13 62h69l23 154h-74l11 62h73l35 226h61l-34 -226h122l35 226h63l-35 -226h73l-13 -62h-70l-23 -154h74l-13 -62h-71l-34 -226h-63zM194 427l-23 -154h122l23 154h-122z" />
    <glyph glyph-name="dollar" unicode="$" horiz-adv-x="384" 
d="M172 -112v122q-56 6 -89 50t-41 145l74 13q7 -144 77 -144q74 0 74 96q0 70 -53 112l-75 56q-41 29 -63 70t-22 107q0 161 118 174v123h53v-124q49 -6 78.5 -44t38.5 -121l-76 -18q-3 118 -70 118q-65 0 -65 -98q0 -44 9.5 -70t37.5 -48l76 -58q27 -19 43 -35.5t31 -53.5
t15 -87q0 -146 -118 -162v-123h-53z" />
    <glyph glyph-name="percent" unicode="%" horiz-adv-x="693" 
d="M220 -15l183 730h57l-183 -730h-57zM251 581v-170q0 -76 -27.5 -105t-78.5 -29t-78.5 29t-27.5 105v170q0 76 27.5 105t78.5 29t78.5 -29t27.5 -105zM187 402v188q0 76 -42.5 76t-42.5 -76v-188q0 -76 42.5 -76t42.5 76zM654 289v-170q0 -76 -27.5 -105t-78.5 -29
t-78.5 29t-27.5 105v170q0 76 27.5 105t78.5 29t78.5 -29t27.5 -105zM590 110v188q0 76 -42.5 76t-42.5 -76v-188q0 -76 42.5 -76t42.5 76z" />
    <glyph glyph-name="ampersand" unicode="&#x26;" horiz-adv-x="421" 
d="M26 164v32q0 71 25.5 108t73.5 55q-48 86 -48 188q0 168 139 168q62 0 97 -40.5t44 -142.5l-71 -11q-5 75 -21 102t-47.5 27t-48 -22.5t-16.5 -89.5t39 -140l93 -172q10 65 14 139h66q-11 -147 -33 -224l77 -141h-86l-29 53q-44 -68 -132 -68q-63 0 -99.5 39t-36.5 140z
M174 50q57 0 84 67l-101 184q-54 -30 -54 -105v-33q0 -65 19 -89t52 -24z" />
    <glyph glyph-name="quotesingle" unicode="'" horiz-adv-x="177" 
d="M62 496l-14 244h81l-14 -244h-53z" />
    <glyph glyph-name="parenleft" unicode="(" horiz-adv-x="260" 
d="M52 148q-10 89 -10 212.5t10 206.5t25.5 129.5t42.5 71t52 31t64 6.5v-65q-23 0 -37 -4t-31 -24.5t-26 -59.5q-21 -91 -21 -245.5t6 -232.5t15 -119.5t26 -63.5t30.5 -26.5t37.5 -4.5v-65q-39 0 -64 6.5t-52 33t-42.5 75.5t-25.5 138z" />
    <glyph glyph-name="parenright" unicode=")" horiz-adv-x="260" 
d="M190 567q10 -83 10 -206.5t-10 -212.5t-25.5 -138t-42.5 -75.5t-52 -33t-64 -6.5v65q24 0 37.5 4.5t30.5 26.5t26 63q21 97 21 311q0 290 -47 347q-17 20 -31 24t-37 4v65q39 0 64 -6.5t52 -31t42.5 -71t25.5 -129.5z" />
    <glyph glyph-name="asterisk" unicode="*" horiz-adv-x="391" 
d="M309 421l-87 94l4 -156h-61l3 156l-86 -94l-34 46l101 98l-101 98l34 47l86 -96l-3 158h61l-4 -158l87 96l34 -47l-102 -98l102 -98z" />
    <glyph glyph-name="plus" unicode="+" horiz-adv-x="377" 
d="M56 319v62h103v148h59v-148h102v-62h-102v-148h-59v148h-103z" />
    <glyph glyph-name="comma" unicode="," horiz-adv-x="163" 
d="M42 0v92h79v-88l-39 -124l-30 6l12 114h-22z" />
    <glyph glyph-name="hyphen" unicode="-" horiz-adv-x="252" 
d="M30 274v62h192v-62h-192z" />
    <glyph glyph-name="period" unicode="." horiz-adv-x="163" 
d="M42 0v92h79v-92h-79z" />
    <glyph glyph-name="slash" unicode="/" horiz-adv-x="290" 
d="M33 -52l172 804h52l-172 -804h-52z" />
    <glyph glyph-name="zero" unicode="0" horiz-adv-x="411" 
d="M362 491v-282q0 -127 -40.5 -175.5t-116 -48.5t-116 48.5t-40.5 175.5v282q0 127 40.5 175.5t116 48.5t116 -48.5t40.5 -175.5zM283 194v312q0 144 -77 144q-37 0 -57.5 -31t-20.5 -113v-312q0 -82 20.5 -113t57.5 -31q77 0 77 144z" />
    <glyph glyph-name="one" unicode="1" horiz-adv-x="235" 
d="M172 700v-700h-80v611h-86v46l122 43h44z" />
    <glyph glyph-name="two" unicode="2" horiz-adv-x="400" 
d="M98 675q37 40 106 40t108.5 -36.5t39.5 -131t-62 -194.5l-180 -289h240v-64h-299v48q0 51 16.5 91t73.5 130l83 130q49 68 49 150q0 58 -19 81t-53.5 23t-53.5 -28.5t-25 -103.5l-70 11q9 103 46 143z" />
    <glyph glyph-name="three" unicode="3" horiz-adv-x="408" 
d="M197 50q82 0 82 113v28q0 77 -21.5 104.5t-62.5 27.5h-47v62h48q35 2 55 28.5t20 91.5v30q0 118 -71 118q-35 0 -54.5 -28.5t-24.5 -103.5l-71 11q9 103 46 143t106 40t107.5 -41.5t38.5 -155.5t-58 -154q69 -41 69 -183q0 -108 -43.5 -152t-115 -44t-108.5 40t-45 143
l71 10q6 -75 24.5 -101.5t54.5 -26.5z" />
    <glyph glyph-name="four" unicode="4" 
d="M231 0v164h-224v38l168 498h135v-472h41v-64h-41v-164h-79zM231 228v416l-142 -416h142z" />
    <glyph glyph-name="five" unicode="5" horiz-adv-x="378" 
d="M61 334v366h270v-64h-197v-240h53q76 0 116 -40.5t40 -158t-40.5 -165t-109.5 -47.5t-106 40.5t-45 142.5l70 9q6 -75 24 -101t53.5 -26t56 30.5t20.5 110.5v22q0 68 -20 94.5t-59 26.5h-126z" />
    <glyph glyph-name="six" unicode="6" horiz-adv-x="404" 
d="M323 364q39 -46 39 -166.5t-41 -166.5t-116 -46t-115.5 46t-40.5 168v287q0 130 41 179.5t109.5 49.5t105 -35.5t44.5 -126.5l-73 -18q-4 65 -21.5 90t-52 25t-54.5 -31.5t-20 -115.5v-130q34 37 95 37t100 -46zM286 185v25q0 138 -78.5 138t-79.5 -130v-33
q0 -138 79 -138t79 138z" />
    <glyph glyph-name="seven" unicode="7" horiz-adv-x="333" 
d="M19 636v64h291v-38l-162 -662h-81l164 636h-212z" />
    <glyph glyph-name="eight" unicode="8" horiz-adv-x="417" 
d="M355 532q0 -137 -74 -170q87 -35 87 -183q0 -110 -41.5 -152t-118.5 -42t-118 42t-41 152q0 151 86 183q-72 34 -72 170q0 104 37.5 143.5t108 39.5t108.5 -39.5t38 -143.5zM289 173v31q0 71 -21 98.5t-59.5 27.5t-59.5 -27.5t-21 -98.5v-31q0 -71 21 -98.5t59.5 -27.5
t59.5 27.5t21 98.5zM278 504v36q0 65 -18 89t-51.5 24t-51.5 -24t-18 -89v-36q0 -65 18 -89t51.5 -24t51.5 24t18 89z" />
    <glyph glyph-name="nine" unicode="9" horiz-adv-x="404" 
d="M314.5 34q-40.5 -49 -112 -49t-109.5 40t-48 143l70 10q8 -75 27 -101.5t56.5 -26.5t58 31.5t20.5 115.5v130q-33 -37 -94.5 -37t-101 46t-39.5 166.5t41.5 166.5t116.5 46t115 -46t40 -168v-287q0 -131 -40.5 -180zM118 515v-25q0 -138 80 -138q36 0 57 28.5t22 101.5
v33q0 138 -79.5 138t-79.5 -138z" />
    <glyph glyph-name="colon" unicode=":" horiz-adv-x="163" 
d="M42 0v92h79v-92h-79zM42 408v92h79v-92h-79z" />
    <glyph glyph-name="semicolon" unicode=";" horiz-adv-x="163" 
d="M42 0v92h79v-88l-39 -124l-30 6l12 114h-22zM42 408v92h79v-92h-79z" />
    <glyph glyph-name="less" unicode="&#x3c;" 
d="M56 317v66l266 150v-66l-196 -117l196 -117v-66z" />
    <glyph glyph-name="equal" unicode="=" horiz-adv-x="377" 
d="M56 419v62h264v-62h-264zM56 219v62h264v-62h-264z" />
    <glyph glyph-name="greater" unicode="&#x3e;" 
d="M322 383v-66l-266 -150v66l197 117l-197 117v66z" />
    <glyph glyph-name="question" unicode="?" horiz-adv-x="358" 
d="M196 168h-60q0 119 47.5 216t47.5 159t-16.5 84.5t-47 22.5t-47 -27.5t-22.5 -101.5l-71 11q8 102 43.5 142.5t100.5 40.5t101.5 -37t36.5 -125.5t-56.5 -195t-56.5 -189.5zM127 0v92h79v-92h-79z" />
    <glyph glyph-name="at" unicode="@" horiz-adv-x="616" 
d="M567 130h-197l-11 87q-14 -102 -89 -102q-46 0 -70 35t-24 127v116q0 92 24.5 127t69.5 35q76 0 92 -97l15 82h50v-357h99v206q0 169 -63 231q-31 30 -68 42.5t-87.5 12.5t-87.5 -12.5t-68 -42.5q-62 -63 -62 -231v-108q0 -168 62 -231q31 -30 68 -42.5t88 -12.5
q85 0 133 36l17 -42q-56 -44 -150 -44q-60 0 -104 14.5t-80 50.5q-75 72 -75 271v108q0 198 75 271q36 36 80 50.5t104 14.5t104 -14.5t80 -50.5q75 -73 75 -271v-259zM345 234q8 36 8 115.5t-15 111.5t-44 32q-40 0 -40 -88v-140q0 -49 11 -68.5t30.5 -19.5t30.5 10.5
t19 46.5z" />
    <glyph glyph-name="A" unicode="A" horiz-adv-x="394" 
d="M298 0l-31 182h-141l-30 -182h-80l128 700h106l128 -700h-80zM197 599l-60 -353h119z" />
    <glyph glyph-name="B" unicode="B" horiz-adv-x="382" 
d="M63 0v700h114q75 0 115.5 -42t40.5 -147q0 -122 -85 -150q100 -22 100 -161q0 -111 -41 -155.5t-114 -44.5h-130zM270 181v27q0 125 -79 125h-48v-270h48q38 0 58.5 26t20.5 92zM259 503v24q0 63 -20 86.5t-57 23.5h-39v-251h39q77 0 77 117z" />
    <glyph glyph-name="C" unicode="C" horiz-adv-x="374" 
d="M147 80.5q19 -30.5 54 -30.5t52.5 26.5t23.5 100.5l70 -9q-9 -102 -45.5 -142.5t-104.5 -40.5t-108 49t-40 180v272q0 131 40 180t107.5 49t103 -35t43.5 -125l-73 -18q-6 64 -22.5 88.5t-49 24.5t-51.5 -31.5t-19 -115.5v-310q0 -82 19 -112.5z" />
    <glyph glyph-name="D" unicode="D" horiz-adv-x="406" 
d="M63 0v700h136q76 0 117 -48.5t41 -175.5v-252q0 -127 -41 -175.5t-117 -48.5h-136zM278 206v287q0 143 -79 143h-56v-573h56q79 0 79 143z" />
    <glyph glyph-name="E" unicode="E" horiz-adv-x="359" 
d="M143 317v-253h174v-64h-254v700h251v-64h-171v-255h156v-64h-156z" />
    <glyph glyph-name="F" unicode="F" horiz-adv-x="323" 
d="M143 317v-317h-80v700h240v-64h-160v-255h145v-64h-145z" />
    <glyph glyph-name="G" unicode="G" horiz-adv-x="408" 
d="M195 307v64h157v-370h-49l-14 65q-30 -81 -108 -81q-63 0 -97.5 48.5t-34.5 175.5v277q0 131 40 180t107.5 49t103 -35t43.5 -125l-73 -18q-6 64 -22.5 88.5t-49 24.5t-51.5 -31.5t-19 -115.5v-309q0 -82 18.5 -113t52.5 -31q76 0 78 135v122h-82z" />
    <glyph glyph-name="H" unicode="H" horiz-adv-x="436" 
d="M294 0v317h-151v-317h-80v700h80v-319h151v319h79v-700h-79z" />
    <glyph glyph-name="I" unicode="I" horiz-adv-x="206" 
d="M63 0v700h80v-700h-80z" />
    <glyph glyph-name="J" unicode="J" horiz-adv-x="295" 
d="M96.5 64.5q10.5 -16.5 28.5 -16.5q38 0 38 93v559h79v-543q0 -172 -121 -172q-40 0 -72.5 30.5t-38.5 102.5l72 10q4 -47 14.5 -63.5z" />
    <glyph glyph-name="K" unicode="K" horiz-adv-x="381" 
d="M143 0h-80v700h80v-296l147 296h80l-153 -301l159 -399h-80l-121 315l-32 -63v-252z" />
    <glyph glyph-name="L" unicode="L" horiz-adv-x="313" 
d="M63 0v700h80v-636h155v-64h-235z" />
    <glyph glyph-name="M" unicode="M" horiz-adv-x="541" 
d="M141 0h-78v700h122l85 -485l86 485h122v-700h-78v632l-85 -482h-89l-85 482v-632z" />
    <glyph glyph-name="N" unicode="N" horiz-adv-x="450" 
d="M141 0h-78v700h83l163 -512v512h78v-700h-83l-163 511v-511z" />
    <glyph glyph-name="O" unicode="O" horiz-adv-x="411" 
d="M362 491v-282q0 -127 -40.5 -175.5t-116 -48.5t-116 48.5t-40.5 175.5v282q0 127 40.5 175.5t116 48.5t116 -48.5t40.5 -175.5zM283 194v312q0 144 -77 144q-37 0 -57.5 -31t-20.5 -113v-312q0 -82 20.5 -113t57.5 -31q77 0 77 144z" />
    <glyph glyph-name="P" unicode="P" horiz-adv-x="363" 
d="M63 0v700h124q75 0 115.5 -48.5t40.5 -175.5v-5q0 -127 -40.5 -175t-115.5 -48h-44v-248h-80zM264 458v31q0 147 -77 147h-44v-325h44q77 0 77 147z" />
    <glyph glyph-name="Q" unicode="Q" horiz-adv-x="411" 
d="M362 491v-232q0 -148 -63 -198l41 -117h-72l-32 93q-10 -2 -30 -2q-76 0 -116.5 48.5t-40.5 175.5v232q0 127 40.5 175.5t116 48.5t116 -48.5t40.5 -175.5zM283 244v262q0 144 -77 144q-37 0 -57.5 -31t-20.5 -113v-262q0 -82 20.5 -113t57.5 -31h8l-52 154h70l37 -108
q14 34 14 98z" />
    <glyph glyph-name="R" unicode="R" horiz-adv-x="386" 
d="M63 0v700h124q74 0 115 -47t41 -169v-5q0 -152 -74 -193l83 -286h-82l-78 268h-49v-268h-80zM264 469v30q0 77 -20.5 107t-56.5 30h-44v-305h44q77 0 77 138z" />
    <glyph glyph-name="S" unicode="S" horiz-adv-x="398" 
d="M278 157q0 80 -54 123l-80 59q-90 64 -90 189q0 104 39.5 145.5t108 41.5t106.5 -38.5t46 -139.5l-76 -17q-4 128 -74.5 128t-70.5 -109q0 -48 10.5 -78t40.5 -54l79 -59q28 -20 45 -38t32.5 -57.5t15.5 -93.5q0 -96 -41.5 -135t-112.5 -39t-111 46t-49 164l75 13
q4 -85 24.5 -121t57.5 -36q79 0 79 106z" />
    <glyph glyph-name="T" unicode="T" horiz-adv-x="299" 
d="M13 636v64h273v-64h-97v-636h-79v636h-97z" />
    <glyph glyph-name="U" unicode="U" horiz-adv-x="422" 
d="M287 700h79v-491q0 -127 -40.5 -175.5t-114.5 -48.5t-114.5 48.5t-40.5 175.5v491h79v-506q0 -81 20 -112.5t55.5 -31.5t56 31.5t20.5 112.5v506z" />
    <glyph glyph-name="V" unicode="V" horiz-adv-x="392" 
d="M96 700l100 -584l100 584h80l-130 -700h-100l-130 700h80z" />
    <glyph glyph-name="W" unicode="W" horiz-adv-x="578" 
d="M372 0l-83 509l-83 -509h-82l-105 700h80l72 -536l88 536h62l85 -535l73 535h80l-105 -700h-82z" />
    <glyph glyph-name="X" unicode="X" horiz-adv-x="381" 
d="M102 700l94 -251l93 251h76l-134 -344l134 -356h-78l-98 259l-97 -259h-76l137 355l-129 345h78z" />
    <glyph glyph-name="Y" unicode="Y" horiz-adv-x="374" 
d="M226 0h-78v234l-132 466h78l93 -361l92 361h78l-131 -466v-234z" />
    <glyph glyph-name="Z" unicode="Z" horiz-adv-x="351" 
d="M23 0v38l222 598h-203v64h286v-38l-222 -598h222v-64h-305z" />
    <glyph glyph-name="bracketleft" unicode="[" horiz-adv-x="266" 
d="M63 -100v900h173v-64h-94v-772h94v-64h-173z" />
    <glyph glyph-name="backslash" unicode="\" horiz-adv-x="290" 
d="M65 752l172 -804h-52l-172 804h52z" />
    <glyph glyph-name="bracketright" unicode="]" horiz-adv-x="266" 
d="M183 800v-900h-173v64h94v772h-94v64h173z" />
    <glyph glyph-name="asciicircum" unicode="^" horiz-adv-x="265" 
d="M132 604l-49 -284h-62l78 378h68l78 -378h-62z" />
    <glyph glyph-name="underscore" unicode="_" horiz-adv-x="329" 
d="M42 -62v62h246v-62h-246z" />
    <glyph glyph-name="grave" unicode="`" horiz-adv-x="245" 
d="M97 756l130 -118l-22 -36l-143 87z" />
    <glyph glyph-name="a" unicode="a" horiz-adv-x="368" 
d="M73 296.5q28 34.5 80 34.5t82 -40v105q0 96 -60 96q-51 0 -97 -59l-27 56q23 28 58.5 47t72.5 19q130 0 130 -176v-379h-47l-16 65q-11 -40 -36.5 -60t-57.5 -20q-54 0 -82 34.5t-28 129.5v18q0 95 28 129.5zM171 48q29 0 45.5 21t18.5 76v27q-2 59 -18.5 82t-45.5 23
q-50 0 -50 -95v-39q0 -95 50 -95z" />
    <glyph glyph-name="b" unicode="b" horiz-adv-x="390" 
d="M136 740v-265q27 80 96 80q53 0 81 -45t28 -165v-150q0 -120 -28 -165t-81 -45q-79 0 -100 111l-22 -96h-47v740h73zM136 270q0 -90 11.5 -142t26.5 -66.5t40 -14.5q54 0 54 124v198q0 124 -53 124q-23 0 -38.5 -14t-27.5 -62t-13 -133v-14z" />
    <glyph glyph-name="c" unicode="c" horiz-adv-x="346" 
d="M275 22.5q-35 -37.5 -95.5 -37.5t-95.5 42.5t-35 147.5v170q0 119 35 164.5t95.5 45.5t94.5 -33t41 -119l-70 -19q-4 109 -61 109q-29 0 -44 -26t-15 -108v-191q0 -70 15.5 -95t44.5 -25t45 24.5t23 94.5l65 -10q-8 -97 -43 -134.5z" />
    <glyph glyph-name="d" unicode="d" horiz-adv-x="392" 
d="M158 -15q-52 0 -80.5 45.5t-28.5 164.5v150q0 119 28.5 164.5t80.5 45.5q72 0 98 -86v271h73v-740h-47l-24 104q-20 -119 -100 -119zM253 270q0 91 -11.5 142.5t-27 66t-40.5 14.5q-51 0 -51 -124v-198q0 -69 14 -96.5t39 -27.5t40 14.5t26 66t11 142.5z" />
    <glyph glyph-name="e" unicode="e" 
d="M287 19q-34 -34 -98.5 -34t-102 45.5t-37.5 164.5v150q0 119 37.5 164.5t105.5 45.5t103 -45t35 -165v-107h-205v-57q0 -134 64 -134q31 0 48 22t24 82l67 -11q-7 -87 -41 -121zM125 359v-57h128v57q0 134 -63 134q-65 0 -65 -134z" />
    <glyph glyph-name="f" unicode="f" horiz-adv-x="216" 
d="M222 678q-17 10 -38 10q-46 0 -46 -128v-20h63v-62h-63v-478h-76v478h-43v62h43v5q0 119 30 164.5t84 45.5q34 0 62 -12z" />
    <glyph glyph-name="g" unicode="g" horiz-adv-x="373" 
d="M369 555v-79h-59q17 -43 17 -114v-9q0 -111 -34.5 -152t-106.5 -41q-28 0 -51 6q-22 -16 -22 -50q0 -60 55 -60h62q124 0 124 -125.5t-124 -125.5h-88q-123 0 -123 126q0 86 58 113q-24 19 -24 69t43 72q-49 41 -49 168v9q0 111 34 152t99.5 41t99.5 -31l78 31h11z
M251 335v45q0 68 -16.5 93t-47 25t-47.5 -25t-17 -93v-45q0 -68 17 -93t47.5 -25t47 25t16.5 93zM236 -6h-100q-45 0 -45 -62.5t45 -62.5h100q45 0 45 62.5t-45 62.5z" />
    <glyph glyph-name="h" unicode="h" horiz-adv-x="398" 
d="M140 0h-77v740h73v-264q24 79 99 79q52 0 79.5 -46t27.5 -168v-341h-77v368q0 125 -49 125q-74 0 -76 -214v-279z" />
    <glyph glyph-name="i" unicode="i" horiz-adv-x="203" 
d="M63 0v540h77v-540h-77zM60 646v94h83v-94h-83z" />
    <glyph glyph-name="j" unicode="j" horiz-adv-x="205" 
d="M-19 -118q17 -10 37 -10q47 0 47 128v540h76v-525q0 -119 -30 -164.5t-84 -45.5q-34 0 -61 12zM61 646v94h84v-94h-84z" />
    <glyph glyph-name="k" unicode="k" horiz-adv-x="359" 
d="M140 0h-77v740h77v-413l122 213h80l-131 -217l148 -323h-83l-110 248l-26 -44v-204z" />
    <glyph glyph-name="l" unicode="l" horiz-adv-x="203" 
d="M63 0v740h77v-740h-77z" />
    <glyph glyph-name="m" unicode="m" horiz-adv-x="587" 
d="M140 0h-77v540h47l20 -85q19 100 99 100q76 0 96 -98q21 98 99 98q51 0 78.5 -46t27.5 -168v-341h-77v368q0 125 -47 125q-69 0 -71 -214v-279h-77v368q0 125 -46 125q-70 0 -72 -214v-279z" />
    <glyph glyph-name="n" unicode="n" horiz-adv-x="398" 
d="M140 0h-77v540h47l20 -86q21 101 105 101q52 0 79.5 -46t27.5 -168v-341h-77v368q0 125 -49 125q-74 0 -76 -214v-279z" />
    <glyph glyph-name="o" unicode="o" 
d="M330 345v-150q0 -119 -36.5 -164.5t-104 -45.5t-104 45.5t-36.5 164.5v150q0 119 36.5 164.5t104 45.5t104 -45.5t36.5 -164.5zM253 181v178q0 134 -63 134q-65 0 -65 -134v-178q0 -134 65 -134q63 0 63 134z" />
    <glyph glyph-name="p" unicode="p" horiz-adv-x="390" 
d="M63 540h47l20 -87q23 102 102 102q53 0 81 -45t28 -165v-150q0 -120 -28 -165t-81 -45q-73 0 -96 94v-259h-73v720zM136 270q0 -90 11.5 -142t26.5 -66.5t40 -14.5q54 0 54 124v198q0 124 -53 124q-23 0 -38.5 -14t-27.5 -62t-13 -133v-14z" />
    <glyph glyph-name="q" unicode="q" horiz-adv-x="390" 
d="M326 540v-720h-73v259q-24 -94 -95 -94q-52 0 -80.5 45.5t-28.5 164.5v150q0 119 28.5 164.5t80.5 45.5q78 0 101 -99l20 84h47zM174 493q-51 0 -51 -124v-198q0 -69 14 -96.5t42 -27.5q16 0 27.5 8t22.5 29q22 42 24 172v28q-1 85 -12.5 133t-27 62t-39.5 14z" />
    <glyph glyph-name="r" unicode="r" horiz-adv-x="258" 
d="M230 555l20 -1l-6 -85q-14 7 -27 7q-76 0 -77 -158v-318h-77v540h47l22 -92q20 107 98 107z" />
    <glyph glyph-name="s" unicode="s" horiz-adv-x="356" 
d="M241 121q0 57 -42 87l-69 49q-77 51 -77 151q0 81 34.5 114t93.5 33t92 -31t40 -113l-69 -14q-5 97 -61.5 97t-56.5 -79q0 -64 42 -95l66 -46q25 -17 39.5 -30.5t28 -45t13.5 -73.5q0 -77 -36 -108.5t-97.5 -31.5t-96.5 36.5t-43 128.5l71 13q4 -65 20.5 -91t45.5 -26
q62 0 62 75z" />
    <glyph glyph-name="t" unicode="t" horiz-adv-x="239" 
d="M20 478v62h53l27 133h46v-133h71v-62h-71v-376q0 -53 29 -53q19 0 40 16l15 -59q-34 -21 -70 -21q-90 0 -90 133v360h-50z" />
    <glyph glyph-name="u" unicode="u" horiz-adv-x="391" 
d="M251 540h76v-540h-47l-16 66q-23 -81 -97 -81q-55 0 -83 34t-28 130v391h76v-397q0 -55 13.5 -75t40.5 -20q61 0 65 97v395z" />
    <glyph glyph-name="v" unicode="v" horiz-adv-x="342" 
d="M94 540l77 -419l78 419h77l-113 -540h-83l-114 540h78z" />
    <glyph glyph-name="w" unicode="w" horiz-adv-x="544" 
d="M344 0l-72 420l-72 -420h-77l-99 540h76l65 -404l68 404h77l70 -403l65 403h75l-98 -540h-78z" />
    <glyph glyph-name="x" unicode="x" horiz-adv-x="348" 
d="M104 540l78 -185l67 185h79l-111 -268l115 -272h-85l-81 190l-69 -190h-80l114 274l-112 266h85z" />
    <glyph glyph-name="y" unicode="y" horiz-adv-x="349" 
d="M153.5 -166q-28.5 -29 -71 -29t-89.5 45l27 52q37 -33 64 -33q42 0 56 82l8 46l-132 543h77l86 -392l75 392h78l-138 -622q-12 -55 -40.5 -84z" />
    <glyph glyph-name="z" unicode="z" horiz-adv-x="320" 
d="M30 0v41l177 437h-166v62h250v-41l-180 -437h181v-62h-262z" />
    <glyph glyph-name="braceleft" unicode="{" horiz-adv-x="282" 
d="M85 106v96q0 61 -12.5 90.5t-49.5 29.5h-3v57q40 0 52.5 30t12.5 90v96q0 187 96 208l27 3q30 0 52 -13l-15 -65q-17 10 -34 10q-27 0 -38 -27t-11 -95v-81q0 -134 -46 -185q46 -51 46 -184v-81q0 -68 11 -95t38 -27q17 0 34 10l15 -65q-22 -13 -52 -13l-27 3
q-96 21 -96 208z" />
    <glyph glyph-name="bar" unicode="|" horiz-adv-x="234" 
d="M91 -52v804h52v-804h-52z" />
    <glyph glyph-name="braceright" unicode="}" horiz-adv-x="282" 
d="M53 -37q27 0 38 27t11 95v81q0 133 46 184q-46 51 -46 185v81q0 68 -11 95t-38 27q-17 0 -34 -10l-15 65q22 13 52 13l27 -3q96 -21 96 -208v-96q0 -60 12.5 -90t52.5 -30v-57h-3q-37 0 -49.5 -29.5t-12.5 -90.5v-96q0 -187 -96 -208l-27 -3q-30 0 -52 13l15 65
q17 -10 34 -10z" />
    <glyph glyph-name="asciitilde" unicode="~" horiz-adv-x="377" 
d="M56 381q25 -17 53 -17t78.5 16.5t79.5 16.5t53 -16v-62q-26 17 -54 17t-78 -17.5t-78.5 -17.5t-53.5 18v62z" />
    <glyph glyph-name="nbspace" unicode="&#xa0;" horiz-adv-x="144" 
 />
    <glyph glyph-name="exclamdown" unicode="&#xa1;" horiz-adv-x="200" 
d="M56 -160l17 533h56l15 -533h-88zM61 448v92h79v-92h-79z" />
    <glyph glyph-name="cent" unicode="&#xa2;" horiz-adv-x="351" 
d="M160 -15v101q-111 14 -111 189v130q0 107 29 154t82 54v102h52v-102q96 -12 108 -150l-69 -19q-6 109 -64 109q-31 0 -46.5 -26t-15.5 -108v-151q0 -70 16 -95t46.5 -25t47 25t22.5 94l67 -10q-14 -155 -112 -170v-102h-52z" />
    <glyph glyph-name="sterling" unicode="&#xa3;" horiz-adv-x="368" 
d="M149 503v-135h123v-52h-123v-252h203v-64h-311v33l28 10v273h-39v52h39v118q0 130 38 179.5t102 49.5t98 -35t42 -125l-73 -18q-5 65 -19.5 89t-44 24t-46.5 -31.5t-17 -115.5z" />
    <glyph glyph-name="yen" unicode="&#xa5;" horiz-adv-x="388" 
d="M341 364v-52h-83l-23 -78v-20h106v-52h-106v-162h-84v162h-105v52h105v20l-23 78h-82v52h67l-97 336h83l94 -354l95 354h83l-98 -336h68z" />
    <glyph glyph-name="brokenbar" unicode="&#xa6;" horiz-adv-x="234" 
d="M91 448v304h52v-304h-52zM91 -52v304h52v-304h-52z" />
    <glyph glyph-name="section" unicode="&#xa7;" horiz-adv-x="340" 
d="M227 -23q0 61 -41 95l-62 47q-72 53 -72 150t47 131q-46 48 -46 131t33 117t88.5 34t87 -28.5t37.5 -104.5l-68 -15q-4 89 -56 89q-50 0 -50 -85q0 -36 8 -58.5t30 -40.5l60 -47q23 -18 36.5 -31.5t26.5 -45.5t13 -74q0 -96 -56 -127q54 -50 54 -131t-34 -113t-92 -32
t-90.5 33t-38.5 118l66 11q7 -104 59 -104q60 0 60 81zM193 154q34 15 34 80t-39 97l-41 30q-25 -22 -25 -83q0 -36 8 -57.5t30 -40.5z" />
    <glyph glyph-name="dieresis" unicode="&#xa8;" horiz-adv-x="328" 
d="M54 646v94h81v-94h-81zM194 646v94h80v-94h-80z" />
    <glyph glyph-name="copyright" unicode="&#xa9;" horiz-adv-x="527" 
d="M229 364.5q11 -19.5 32.5 -19.5t33 17t15.5 64l50 -6q-6 -66 -30.5 -93t-69.5 -27t-71 32t-26 116v159q0 84 26 116t70 32t67.5 -23t29.5 -82l-52 -13q-4 42 -14 57.5t-30 15.5t-31 -20t-11 -73v-182q0 -51 11 -70.5zM471 570v-86q0 -153 -54 -211t-154 -58t-153.5 58
t-53.5 211v86q0 153 53.5 211t153.5 58t154 -58t54 -211zM438 484v86q0 130 -45.5 179.5t-129.5 49.5t-129 -49.5t-45 -179.5v-86q0 -130 45 -179.5t129 -49.5t129.5 49.5t45.5 179.5z" />
    <glyph glyph-name="ordfeminine" unicode="&#xaa;" horiz-adv-x="279" 
d="M59.5 533q19.5 24 55.5 24t56 -26v56q0 78 -40 78q-33 0 -66 -40l-20 43q39 47 94 47q93 0 93 -133v-256h-38l-12 45q-17 -55 -68 -55q-35 0 -54.5 24t-19.5 90v13q0 66 19.5 90zM171 437q0 78 -41 78q-30 0 -30 -61v-28q0 -62 30 -62q38 0 41 64v9z" />
    <glyph glyph-name="guillemotleft" unicode="&#xab;" horiz-adv-x="341" 
d="M32 287v66l105 150l28 -26l-68 -157l68 -157l-28 -26zM176 287v66l105 150l28 -26l-68 -157l68 -157l-28 -26z" />
    <glyph glyph-name="logicalnot" unicode="&#xac;" horiz-adv-x="377" 
d="M56 319v62h264v-207h-56v145h-208z" />
    <glyph glyph-name="registered" unicode="&#xae;" horiz-adv-x="527" 
d="M471 570v-86q0 -153 -54 -211t-154 -58t-153.5 58t-53.5 211v86q0 153 53.5 211t153.5 58t154 -58t54 -211zM438 484v86q0 130 -45.5 179.5t-129.5 49.5t-129 -49.5t-45 -179.5v-86q0 -130 45 -179.5t129 -49.5t129.5 49.5t45.5 179.5zM174 310v435h84q49 0 75.5 -28
t26.5 -101v-8q0 -92 -49 -115l55 -183h-58l-51 173h-28v-173h-55zM305 602v22q0 77 -47 77h-29v-175h29q47 0 47 76z" />
    <glyph glyph-name="macron" unicode="&#xaf;" horiz-adv-x="253" 
d="M32 642v66h190v-66h-190z" />
    <glyph glyph-name="degree" unicode="&#xb0;" horiz-adv-x="321" 
d="M280 568v-105q0 -84 -31 -115.5t-88.5 -31.5t-88.5 31.5t-31 115.5v105q0 83 31 115t88.5 32t88.5 -32t31 -115zM218 453v124q0 89 -57.5 89t-57.5 -89v-124q0 -50 15 -69t43 -19q57 0 57 88z" />
    <glyph glyph-name="plusminus" unicode="&#xb1;" horiz-adv-x="377" 
d="M56 319v62h103v148h59v-148h102v-62h-102v-148h-59v148h-103zM56 0v62h264v-62h-264z" />
    <glyph glyph-name="twosuperior" unicode="&#xb2;" horiz-adv-x="272" 
d="M67.5 699.5q25.5 24.5 71.5 24.5t72 -23t26 -80t-39 -116l-106 -161h142v-49h-199v30q0 54 50 122l68 98q22 38 22 73q0 58 -38 58q-19 0 -29.5 -15.5t-13.5 -57.5l-58 8q6 64 31.5 88.5z" />
    <glyph glyph-name="threesuperior" unicode="&#xb3;" horiz-adv-x="276" 
d="M130 329q43 0 43 62v19q0 42 -11 55.5t-34 13.5h-31v45h35q38 0 38 61v22q0 63 -37 63q-20 0 -30 -15.5t-13 -57.5l-58 8q5 63 30.5 88t72.5 25t71.5 -25.5t24.5 -91.5t-31 -92q37 -27 37 -101t-28.5 -101t-76 -27t-71.5 24.5t-30 88.5l57 10q4 -42 14 -58t28 -16z" />
    <glyph glyph-name="acute" unicode="&#xb4;" horiz-adv-x="245" 
d="M62 638l130 118l35 -67l-143 -87z" />
    <glyph glyph-name="mu" unicode="&#xb5;" horiz-adv-x="398" 
d="M259 540h76v-540h-47l-15 62q-17 -77 -74 -77q-53 0 -72 68l-15 -233h-49v720h77v-359q0 -76 14.5 -104.5t41 -28.5t44 25.5t19.5 78.5v388z" />
    <glyph glyph-name="paragraph" unicode="&#xb6;" horiz-adv-x="345" 
d="M282 700v-700h-80v436h-155v264h235z" />
    <glyph glyph-name="periodcentered" unicode="&#xb7;" horiz-adv-x="163" 
d="M42 260v92h79v-92h-79z" />
    <glyph glyph-name="cedilla" unicode="&#xb8;" horiz-adv-x="182" 
d="M150 -122q0 -73 -66 -73q-54 0 -61 67l41 8q2 -21 6.5 -27.5t13.5 -6.5q19 0 19 30v10q0 14 -8 24.5t-36 18.5l10 71h31l-5 -49q55 -16 55 -73z" />
    <glyph glyph-name="onesuperior" unicode="&#xb9;" horiz-adv-x="177" 
d="M130 715v-420h-63v359h-56v35l78 26h41z" />
    <glyph glyph-name="ordmasculine" unicode="&#xba;" horiz-adv-x="284" 
d="M243 568v-105q0 -84 -26 -115.5t-74.5 -31.5t-75 31.5t-26.5 115.5v105q0 83 26.5 115t75 32t74.5 -32t26 -115zM182 453v124q0 89 -39.5 89t-39.5 -89v-124q0 -88 39.5 -88t39.5 88z" />
    <glyph glyph-name="guillemotright" unicode="&#xbb;" horiz-adv-x="341" 
d="M289 353v-66l-105 -150l-28 26l68 157l-68 157l28 26zM145 353v-66l-105 -150l-28 26l68 157l-68 157l28 26z" />
    <glyph glyph-name="onequarter" unicode="&#xbc;" horiz-adv-x="693" 
d="M196 -15l183 730h57l-183 -730h-57zM170 715v-420h-63v359h-56v35l78 26h41zM541 0v93h-142v33l96 294h109v-277h24v-50h-24v-93h-63zM541 143v235l-76 -235h76z" />
    <glyph glyph-name="onehalf" unicode="&#xbd;" horiz-adv-x="693" 
d="M196 -15l183 730h57l-183 -730h-57zM178 715v-420h-63v359h-56v35l78 26h41zM460.5 404.5q25.5 24.5 71.5 24.5t72 -23t26 -80t-39 -116l-106 -161h142v-49h-199v30q0 54 50 122l68 98q22 38 22 73q0 58 -38 58q-19 0 -29.5 -15.5t-13.5 -57.5l-58 8q6 64 31.5 88.5z" />
    <glyph glyph-name="threequarters" unicode="&#xbe;" horiz-adv-x="693" 
d="M228 -15l183 730h57l-183 -730h-57zM152 329q43 0 43 62v19q0 42 -11 55.5t-34 13.5h-31v45h35q38 0 38 61v22q0 63 -37 63q-20 0 -30 -15.5t-13 -57.5l-58 8q5 63 30.5 88t72.5 25t71.5 -25.5t24.5 -91.5t-31 -92q37 -27 37 -101t-28.5 -101t-76 -27t-71.5 24.5
t-30 88.5l57 10q4 -42 14 -58t28 -16zM551 0v93h-142v33l96 294h109v-277h24v-50h-24v-93h-63zM551 143v235l-76 -235h76z" />
    <glyph glyph-name="questiondown" unicode="&#xbf;" horiz-adv-x="359" 
d="M143 372h60q0 -119 -47.5 -216t-47.5 -159t16.5 -84.5t47 -22.5t47 27.5t22.5 101.5l71 -11q-8 -102 -43.5 -142.5t-100.5 -40.5t-101.5 37t-36.5 125.5t56.5 195t56.5 189.5zM212 540v-92h-79v92h79z" />
    <glyph glyph-name="Agrave" unicode="&#xc0;" horiz-adv-x="394" 
d="M298 0l-31 182h-141l-30 -182h-80l128 700h106l128 -700h-80zM197 599l-60 -353h119zM151 916l130 -118l-22 -36l-143 87z" />
    <glyph glyph-name="Aacute" unicode="&#xc1;" horiz-adv-x="394" 
d="M298 0l-31 182h-141l-30 -182h-80l128 700h106l128 -700h-80zM197 599l-60 -353h119zM116 798l130 118l35 -67l-143 -87z" />
    <glyph glyph-name="Acircumflex" unicode="&#xc2;" horiz-adv-x="394" 
d="M298 0l-31 182h-141l-30 -182h-80l128 700h106l128 -700h-80zM197 599l-60 -353h119zM206 910l92 -116l-24 -34l-77 70l-77 -70l-23 34l90 116h19z" />
    <glyph glyph-name="Atilde" unicode="&#xc3;" horiz-adv-x="394" 
d="M298 0l-31 182h-141l-30 -182h-80l128 700h106l128 -700h-80zM197 599l-60 -353h119zM233 789q-14 0 -39.5 14.5t-37.5 14.5q-21 0 -45 -31l-23 38q33 63 73 63q14 0 39.5 -14t37.5 -14q22 0 44 30l24 -38q-37 -63 -73 -63z" />
    <glyph glyph-name="Adieresis" unicode="&#xc4;" horiz-adv-x="394" 
d="M298 0l-31 182h-141l-30 -182h-80l128 700h106l128 -700h-80zM197 599l-60 -353h119zM88 806v94h81v-94h-81zM228 806v94h80v-94h-80z" />
    <glyph glyph-name="Aring" unicode="&#xc5;" horiz-adv-x="394" 
d="M298 0l-31 182h-141l-30 -182h-80l128 700h106l128 -700h-80zM197 599l-60 -353h119zM274 857v-14q0 -56 -20 -76.5t-56 -20.5t-56 20.5t-20 76.5v14q0 56 20 76.5t56 20.5t56 -20.5t20 -76.5zM225 837v26q0 49 -27 49t-27 -49v-26q0 -49 27 -49t27 49z" />
    <glyph glyph-name="AE" unicode="&#xc6;" horiz-adv-x="591" 
d="M294 0v299h-114l-104 -299h-85l245 700h310v-64h-173v-273h158v-64h-158v-235h176v-64h-255zM294 363v262l-92 -262h92z" />
    <glyph glyph-name="Ccedilla" unicode="&#xc7;" horiz-adv-x="374" 
d="M258 -122q0 -73 -66 -73q-54 0 -61 67l41 8q2 -21 6.5 -27.5t13.5 -6.5q19 0 19 30v10q0 14 -8 24.5t-36 18.5l8 58q-61 7 -93.5 58t-32.5 169v272q0 131 40 180t107.5 49t103 -35t43.5 -125l-73 -18q-6 64 -22.5 88.5t-49 24.5t-51.5 -31.5t-19 -115.5v-310
q0 -82 19 -112.5t54 -30.5t52.5 26.5t23.5 100.5l70 -9q-9 -102 -44.5 -142t-96.5 -41l-3 -34q55 -16 55 -73z" />
    <glyph glyph-name="Egrave" unicode="&#xc8;" horiz-adv-x="359" 
d="M143 317v-253h174v-64h-254v700h251v-64h-171v-255h156v-64h-156zM133 916l130 -118l-22 -36l-143 87z" />
    <glyph glyph-name="Eacute" unicode="&#xc9;" horiz-adv-x="359" 
d="M143 317v-253h174v-64h-254v700h251v-64h-171v-255h156v-64h-156zM120 798l130 118l35 -67l-143 -87z" />
    <glyph glyph-name="Ecircumflex" unicode="&#xca;" horiz-adv-x="359" 
d="M143 317v-253h174v-64h-254v700h251v-64h-171v-255h156v-64h-156zM203 910l92 -116l-24 -34l-77 70l-77 -70l-23 34l90 116h19z" />
    <glyph glyph-name="Edieresis" unicode="&#xcb;" horiz-adv-x="359" 
d="M143 317v-253h174v-64h-254v700h251v-64h-171v-255h156v-64h-156zM70 806v94h81v-94h-81zM210 806v94h80v-94h-80z" />
    <glyph glyph-name="Igrave" unicode="&#xcc;" horiz-adv-x="206" 
d="M63 0v700h80v-700h-80zM56 916l130 -118l-22 -36l-143 87z" />
    <glyph glyph-name="Iacute" unicode="&#xcd;" horiz-adv-x="206" 
d="M63 0v700h80v-700h-80zM21 798l130 118l35 -67l-143 -87z" />
    <glyph glyph-name="Icircumflex" unicode="&#xce;" horiz-adv-x="206" 
d="M63 0v700h80v-700h-80zM112 910l92 -116l-24 -34l-77 70l-77 -70l-23 34l90 116h19z" />
    <glyph glyph-name="Idieresis" unicode="&#xcf;" horiz-adv-x="206" 
d="M63 0v700h80v-700h-80zM-6 806v94h81v-94h-81zM134 806v94h80v-94h-80z" />
    <glyph glyph-name="Eth" unicode="&#xd0;" horiz-adv-x="406" 
d="M16 324v52h47v324h136q76 0 117 -48.5t41 -175.5v-252q0 -127 -41 -175.5t-117 -48.5h-136v324h-47zM278 206v287q0 143 -79 143h-56v-260h78v-52h-78v-261h56q79 0 79 143z" />
    <glyph glyph-name="Ntilde" unicode="&#xd1;" horiz-adv-x="450" 
d="M141 0h-78v700h83l163 -512v512h78v-700h-83l-163 511v-511zM262 789q-14 0 -39.5 14.5t-37.5 14.5q-21 0 -45 -31l-23 38q33 63 73 63q14 0 39.5 -14t37.5 -14q22 0 44 30l24 -38q-37 -63 -73 -63z" />
    <glyph glyph-name="Ograve" unicode="&#xd2;" horiz-adv-x="411" 
d="M362 491v-282q0 -127 -40.5 -175.5t-116 -48.5t-116 48.5t-40.5 175.5v282q0 127 40.5 175.5t116 48.5t116 -48.5t40.5 -175.5zM283 194v312q0 144 -77 144q-37 0 -57.5 -31t-20.5 -113v-312q0 -82 20.5 -113t57.5 -31q77 0 77 144zM159 916l130 -118l-22 -36l-143 87z
" />
    <glyph glyph-name="Oacute" unicode="&#xd3;" horiz-adv-x="411" 
d="M362 491v-282q0 -127 -40.5 -175.5t-116 -48.5t-116 48.5t-40.5 175.5v282q0 127 40.5 175.5t116 48.5t116 -48.5t40.5 -175.5zM283 194v312q0 144 -77 144q-37 0 -57.5 -31t-20.5 -113v-312q0 -82 20.5 -113t57.5 -31q77 0 77 144zM124 798l130 118l35 -67l-143 -87z
" />
    <glyph glyph-name="Ocircumflex" unicode="&#xd4;" horiz-adv-x="411" 
d="M362 491v-282q0 -127 -40.5 -175.5t-116 -48.5t-116 48.5t-40.5 175.5v282q0 127 40.5 175.5t116 48.5t116 -48.5t40.5 -175.5zM283 194v312q0 144 -77 144q-37 0 -57.5 -31t-20.5 -113v-312q0 -82 20.5 -113t57.5 -31q77 0 77 144zM215 910l92 -116l-24 -34l-77 70
l-77 -70l-23 34l90 116h19z" />
    <glyph glyph-name="Otilde" unicode="&#xd5;" horiz-adv-x="411" 
d="M362 491v-282q0 -127 -40.5 -175.5t-116 -48.5t-116 48.5t-40.5 175.5v282q0 127 40.5 175.5t116 48.5t116 -48.5t40.5 -175.5zM283 194v312q0 144 -77 144q-37 0 -57.5 -31t-20.5 -113v-312q0 -82 20.5 -113t57.5 -31q77 0 77 144zM242 789q-14 0 -39.5 14.5t-37.5 14.5
q-21 0 -45 -31l-23 38q33 63 73 63q14 0 39.5 -14t37.5 -14q22 0 44 30l24 -38q-37 -63 -73 -63z" />
    <glyph glyph-name="Odieresis" unicode="&#xd6;" horiz-adv-x="411" 
d="M362 491v-282q0 -127 -40.5 -175.5t-116 -48.5t-116 48.5t-40.5 175.5v282q0 127 40.5 175.5t116 48.5t116 -48.5t40.5 -175.5zM283 194v312q0 144 -77 144q-37 0 -57.5 -31t-20.5 -113v-312q0 -82 20.5 -113t57.5 -31q77 0 77 144zM96 806v94h81v-94h-81zM236 806v94h80
v-94h-80z" />
    <glyph glyph-name="multiply" unicode="&#xd7;" horiz-adv-x="376" 
d="M101 183l-40 44l91 123l-91 123l40 44l87 -118l87 118l40 -44l-91 -123l91 -123l-40 -44l-87 118z" />
    <glyph glyph-name="Oslash" unicode="&#xd8;" horiz-adv-x="411" 
d="M49 209v282q0 127 40.5 175.5t116.5 48.5q28 0 50 -6l10 43h52l-15 -67q59 -51 59 -194v-282q0 -127 -40.5 -175.5t-115.5 -48.5q-28 0 -51 6l-9 -43h-52l14 66q-59 48 -59 195zM128 194q0 -41 4 -65l110 511q-16 10 -36 10q-37 0 -57.5 -31t-20.5 -113v-312zM283 194
v312q0 34 -5 62l-109 -509q14 -9 37 -9q77 0 77 144z" />
    <glyph glyph-name="Ugrave" unicode="&#xd9;" horiz-adv-x="422" 
d="M287 700h79v-491q0 -127 -40.5 -175.5t-114.5 -48.5t-114.5 48.5t-40.5 175.5v491h79v-506q0 -81 20 -112.5t55.5 -31.5t56 31.5t20.5 112.5v506zM165 916l130 -118l-22 -36l-143 87z" />
    <glyph glyph-name="Uacute" unicode="&#xda;" horiz-adv-x="422" 
d="M287 700h79v-491q0 -127 -40.5 -175.5t-114.5 -48.5t-114.5 48.5t-40.5 175.5v491h79v-506q0 -81 20 -112.5t55.5 -31.5t56 31.5t20.5 112.5v506zM130 798l130 118l35 -67l-143 -87z" />
    <glyph glyph-name="Ucircumflex" unicode="&#xdb;" horiz-adv-x="422" 
d="M287 700h79v-491q0 -127 -40.5 -175.5t-114.5 -48.5t-114.5 48.5t-40.5 175.5v491h79v-506q0 -81 20 -112.5t55.5 -31.5t56 31.5t20.5 112.5v506zM220 910l92 -116l-24 -34l-77 70l-77 -70l-23 34l90 116h19z" />
    <glyph glyph-name="Udieresis" unicode="&#xdc;" horiz-adv-x="422" 
d="M287 700h79v-491q0 -127 -40.5 -175.5t-114.5 -48.5t-114.5 48.5t-40.5 175.5v491h79v-506q0 -81 20 -112.5t55.5 -31.5t56 31.5t20.5 112.5v506zM100 806v94h81v-94h-81zM240 806v94h80v-94h-80z" />
    <glyph glyph-name="Yacute" unicode="&#xdd;" horiz-adv-x="374" 
d="M226 0h-78v234l-132 466h78l93 -361l92 361h78l-131 -466v-234zM127 798l130 118l35 -67l-143 -87z" />
    <glyph glyph-name="Thorn" unicode="&#xde;" horiz-adv-x="363" 
d="M63 0v700h80v-124h44q75 0 115.5 -48.5t40.5 -175.5v-5q0 -127 -40.5 -175t-115.5 -48h-44v-124h-80zM264 334v31q0 147 -77 147h-44v-325h44q77 0 77 147z" />
    <glyph glyph-name="germandbls" unicode="&#xdf;" horiz-adv-x="408" 
d="M161 127h61q0 -81 43 -81q25 0 36.5 20t11.5 77.5t-17 97t-62 82.5l-45 42h-2v33q38 15 53 47t15 90q0 118 -61 118q-32 0 -45.5 -32.5t-13.5 -116.5v-504h-79v505q0 116 34.5 163t103 47t104.5 -42.5t36 -137.5q0 -111 -77 -151l32 -29q53 -50 74.5 -98t21.5 -121.5
t-32.5 -112t-82.5 -38.5q-109 0 -109 142z" />
    <glyph glyph-name="agrave" unicode="&#xe0;" horiz-adv-x="368" 
d="M73 296.5q28 34.5 80 34.5t82 -40v105q0 96 -60 96q-51 0 -97 -59l-27 56q23 28 58.5 47t72.5 19q130 0 130 -176v-379h-47l-16 65q-11 -40 -36.5 -60t-57.5 -20q-54 0 -82 34.5t-28 129.5v18q0 95 28 129.5zM171 48q29 0 45.5 21t18.5 76v27q-2 59 -18.5 82t-45.5 23
q-50 0 -50 -95v-39q0 -95 50 -95zM137 756l130 -118l-22 -36l-143 87z" />
    <glyph glyph-name="aacute" unicode="&#xe1;" horiz-adv-x="368" 
d="M73 296.5q28 34.5 80 34.5t82 -40v105q0 96 -60 96q-51 0 -97 -59l-27 56q23 28 58.5 47t72.5 19q130 0 130 -176v-379h-47l-16 65q-11 -40 -36.5 -60t-57.5 -20q-54 0 -82 34.5t-28 129.5v18q0 95 28 129.5zM171 48q29 0 45.5 21t18.5 76v27q-2 59 -18.5 82t-45.5 23
q-50 0 -50 -95v-39q0 -95 50 -95zM124 638l130 118l35 -67l-143 -87z" />
    <glyph glyph-name="acircumflex" unicode="&#xe2;" horiz-adv-x="368" 
d="M73 296.5q28 34.5 80 34.5t82 -40v105q0 96 -60 96q-51 0 -97 -59l-27 56q23 28 58.5 47t72.5 19q130 0 130 -176v-379h-47l-16 65q-11 -40 -36.5 -60t-57.5 -20q-54 0 -82 34.5t-28 129.5v18q0 95 28 129.5zM171 48q29 0 45.5 21t18.5 76v27q-2 59 -18.5 82t-45.5 23
q-50 0 -50 -95v-39q0 -95 50 -95zM193 750l92 -116l-24 -34l-77 70l-77 -70l-23 34l90 116h19z" />
    <glyph glyph-name="atilde" unicode="&#xe3;" horiz-adv-x="368" 
d="M73 296.5q28 34.5 80 34.5t82 -40v105q0 96 -60 96q-51 0 -97 -59l-27 56q23 28 58.5 47t72.5 19q130 0 130 -176v-379h-47l-16 65q-11 -40 -36.5 -60t-57.5 -20q-54 0 -82 34.5t-28 129.5v18q0 95 28 129.5zM171 48q29 0 45.5 21t18.5 76v27q-2 59 -18.5 82t-45.5 23
q-50 0 -50 -95v-39q0 -95 50 -95zM229 629q-14 0 -39.5 14.5t-37.5 14.5q-21 0 -45 -31l-23 38q33 63 73 63q14 0 39.5 -14t37.5 -14q22 0 44 30l24 -38q-37 -63 -73 -63z" />
    <glyph glyph-name="adieresis" unicode="&#xe4;" horiz-adv-x="368" 
d="M73 296.5q28 34.5 80 34.5t82 -40v105q0 96 -60 96q-51 0 -97 -59l-27 56q23 28 58.5 47t72.5 19q130 0 130 -176v-379h-47l-16 65q-11 -40 -36.5 -60t-57.5 -20q-54 0 -82 34.5t-28 129.5v18q0 95 28 129.5zM171 48q29 0 45.5 21t18.5 76v27q-2 59 -18.5 82t-45.5 23
q-50 0 -50 -95v-39q0 -95 50 -95zM75 646v94h81v-94h-81zM215 646v94h80v-94h-80z" />
    <glyph glyph-name="aring" unicode="&#xe5;" horiz-adv-x="368" 
d="M73 296.5q28 34.5 80 34.5t82 -40v105q0 96 -60 96q-51 0 -97 -59l-27 56q23 28 58.5 47t72.5 19q130 0 130 -176v-379h-47l-16 65q-11 -40 -36.5 -60t-57.5 -20q-54 0 -82 34.5t-28 129.5v18q0 95 28 129.5zM171 48q29 0 45.5 21t18.5 76v27q-2 59 -18.5 82t-45.5 23
q-50 0 -50 -95v-39q0 -95 50 -95zM275 697v-14q0 -56 -20 -76.5t-56 -20.5t-56 20.5t-20 76.5v14q0 56 20 76.5t56 20.5t56 -20.5t20 -76.5zM226 677v26q0 49 -27 49t-27 -49v-26q0 -49 27 -49t27 49z" />
    <glyph glyph-name="ae" unicode="&#xe6;" horiz-adv-x="567" 
d="M379 -15q-97 0 -127 83q-10 -41 -36.5 -62t-60.5 -21q-54 0 -82 31.5t-28 118.5v22q0 87 28 118.5t82 31.5h80v89q0 96 -60 96q-51 0 -97 -59l-27 56q23 28 58.5 47t72.5 19q63 0 95 -40q35 40 102.5 40t103 -45t35.5 -165v-102h-206v-62q0 -134 65 -134q30 0 47 22.5
t23 81.5l68 -11q-8 -87 -41.5 -121t-94.5 -34zM441 359q0 134 -64.5 134t-64.5 -134v-52h129v52zM171 243q-50 0 -50 -80v-36q0 -79 50 -79q30 0 47 19.5t17 71.5v104h-64z" />
    <glyph glyph-name="ccedilla" unicode="&#xe7;" horiz-adv-x="351" 
d="M247 -122q0 -73 -66 -73q-54 0 -61 67l41 8q2 -21 6.5 -27.5t13.5 -6.5q19 0 19 30v10q0 14 -8 24.5t-36 18.5l8 57q-115 9 -115 189v170q0 119 35 164.5t95.5 45.5t94.5 -33t41 -119l-70 -19q-4 109 -61 109q-29 0 -44 -26t-15 -108v-191q0 -70 15.5 -95t44.5 -25
t45 24.5t23 94.5l65 -10q-8 -90 -39 -128.5t-84 -42.5l-3 -35q55 -16 55 -73z" />
    <glyph glyph-name="egrave" unicode="&#xe8;" 
d="M287 19q-34 -34 -98.5 -34t-102 45.5t-37.5 164.5v150q0 119 37.5 164.5t105.5 45.5t103 -45t35 -165v-107h-205v-57q0 -134 64 -134q31 0 48 22t24 82l67 -11q-7 -87 -41 -121zM125 359v-57h128v57q0 134 -63 134q-65 0 -65 -134zM143 756l130 -118l-22 -36l-143 87z
" />
    <glyph glyph-name="eacute" unicode="&#xe9;" 
d="M287 19q-34 -34 -98.5 -34t-102 45.5t-37.5 164.5v150q0 119 37.5 164.5t105.5 45.5t103 -45t35 -165v-107h-205v-57q0 -134 64 -134q31 0 48 22t24 82l67 -11q-7 -87 -41 -121zM125 359v-57h128v57q0 134 -63 134q-65 0 -65 -134zM115 638l130 118l35 -67l-143 -87z" />
    <glyph glyph-name="ecircumflex" unicode="&#xea;" 
d="M287 19q-34 -34 -98.5 -34t-102 45.5t-37.5 164.5v150q0 119 37.5 164.5t105.5 45.5t103 -45t35 -165v-107h-205v-57q0 -134 64 -134q31 0 48 22t24 82l67 -11q-7 -87 -41 -121zM125 359v-57h128v57q0 134 -63 134q-65 0 -65 -134zM199 750l92 -116l-24 -34l-77 70
l-77 -70l-23 34l90 116h19z" />
    <glyph glyph-name="edieresis" unicode="&#xeb;" 
d="M287 19q-34 -34 -98.5 -34t-102 45.5t-37.5 164.5v150q0 119 37.5 164.5t105.5 45.5t103 -45t35 -165v-107h-205v-57q0 -134 64 -134q31 0 48 22t24 82l67 -11q-7 -87 -41 -121zM125 359v-57h128v57q0 134 -63 134q-65 0 -65 -134zM80 646v94h81v-94h-81zM220 646v94h80
v-94h-80z" />
    <glyph glyph-name="igrave" unicode="&#xec;" horiz-adv-x="203" 
d="M63 0v540h77v-540h-77zM54 756l130 -118l-22 -36l-143 87z" />
    <glyph glyph-name="iacute" unicode="&#xed;" horiz-adv-x="203" 
d="M63 0v540h77v-540h-77zM27 638l130 118l35 -67l-143 -87z" />
    <glyph glyph-name="icircumflex" unicode="&#xee;" horiz-adv-x="203" 
d="M63 0v540h77v-540h-77zM111 750l92 -116l-24 -34l-77 70l-77 -70l-23 34l90 116h19z" />
    <glyph glyph-name="idieresis" unicode="&#xef;" horiz-adv-x="203" 
d="M63 0v540h77v-540h-77zM-8 646v94h81v-94h-81zM132 646v94h80v-94h-80z" />
    <glyph glyph-name="eth" unicode="&#xf0;" 
d="M330 413v-218q0 -119 -36.5 -164.5t-104 -45.5t-104 45.5t-36.5 164.5v130q0 210 123 210q58 0 85 -55q-3 94 -18 160l-86 -42v51l72 35q-14 33 -36 51t-40.5 21.5t-46.5 3.5l-9 62q69 0 116 -21.5t77 -87.5l72 35v-50l-57 -28q29 -95 29 -257zM253 181v158
q0 134 -63 134q-65 0 -65 -134v-158q0 -134 65 -134q63 0 63 134z" />
    <glyph glyph-name="ntilde" unicode="&#xf1;" horiz-adv-x="398" 
d="M140 0h-77v540h47l20 -86q21 101 105 101q52 0 79.5 -46t27.5 -168v-341h-77v368q0 125 -49 125q-74 0 -76 -214v-279zM244 629q-14 0 -39.5 14.5t-37.5 14.5q-21 0 -45 -31l-23 38q33 63 73 63q14 0 39.5 -14t37.5 -14q22 0 44 30l24 -38q-37 -63 -73 -63z" />
    <glyph glyph-name="ograve" unicode="&#xf2;" 
d="M330 345v-150q0 -119 -36.5 -164.5t-104 -45.5t-104 45.5t-36.5 164.5v150q0 119 36.5 164.5t104 45.5t104 -45.5t36.5 -164.5zM253 181v178q0 134 -63 134q-65 0 -65 -134v-178q0 -134 65 -134q63 0 63 134zM143 756l130 -118l-22 -36l-143 87z" />
    <glyph glyph-name="oacute" unicode="&#xf3;" 
d="M330 345v-150q0 -119 -36.5 -164.5t-104 -45.5t-104 45.5t-36.5 164.5v150q0 119 36.5 164.5t104 45.5t104 -45.5t36.5 -164.5zM253 181v178q0 134 -63 134q-65 0 -65 -134v-178q0 -134 65 -134q63 0 63 134zM115 638l130 118l35 -67l-143 -87z" />
    <glyph glyph-name="ocircumflex" unicode="&#xf4;" 
d="M330 345v-150q0 -119 -36.5 -164.5t-104 -45.5t-104 45.5t-36.5 164.5v150q0 119 36.5 164.5t104 45.5t104 -45.5t36.5 -164.5zM253 181v178q0 134 -63 134q-65 0 -65 -134v-178q0 -134 65 -134q63 0 63 134zM199 750l92 -116l-24 -34l-77 70l-77 -70l-23 34l90 116h19z
" />
    <glyph glyph-name="otilde" unicode="&#xf5;" 
d="M330 345v-150q0 -119 -36.5 -164.5t-104 -45.5t-104 45.5t-36.5 164.5v150q0 119 36.5 164.5t104 45.5t104 -45.5t36.5 -164.5zM253 181v178q0 134 -63 134q-65 0 -65 -134v-178q0 -134 65 -134q63 0 63 134zM227 629q-14 0 -39.5 14.5t-37.5 14.5q-21 0 -45 -31l-23 38
q33 63 73 63q14 0 39.5 -14t37.5 -14q22 0 44 30l24 -38q-37 -63 -73 -63z" />
    <glyph glyph-name="odieresis" unicode="&#xf6;" 
d="M330 345v-150q0 -119 -36.5 -164.5t-104 -45.5t-104 45.5t-36.5 164.5v150q0 119 36.5 164.5t104 45.5t104 -45.5t36.5 -164.5zM253 181v178q0 134 -63 134q-65 0 -65 -134v-178q0 -134 65 -134q63 0 63 134zM80 646v94h81v-94h-81zM220 646v94h80v-94h-80z" />
    <glyph glyph-name="divide" unicode="&#xf7;" horiz-adv-x="377" 
d="M154 137v78h67v-78h-67zM154 485v78h67v-78h-67zM56 319v62h264v-62h-264z" />
    <glyph glyph-name="oslash" unicode="&#xf8;" 
d="M49 195v150q0 119 36.5 164.5t104.5 45.5q18 0 33 -3l26 120h52l-30 -140q59 -44 59 -187v-150q0 -119 -36.5 -164.5t-103.5 -45.5q-20 0 -36 3l-25 -120h-52l30 140q-58 45 -58 187zM253 181v178q0 36 -5 66l-80 -374q9 -4 22 -4q63 0 63 134zM125 181q0 -36 5 -66
l80 374q-9 4 -20 4q-65 0 -65 -134v-178z" />
    <glyph glyph-name="ugrave" unicode="&#xf9;" horiz-adv-x="391" 
d="M251 540h76v-540h-47l-16 66q-23 -81 -97 -81q-55 0 -83 34t-28 130v391h76v-397q0 -55 13.5 -75t40.5 -20q61 0 65 97v395zM148 756l130 -118l-22 -36l-143 87z" />
    <glyph glyph-name="uacute" unicode="&#xfa;" horiz-adv-x="391" 
d="M251 540h76v-540h-47l-16 66q-23 -81 -97 -81q-55 0 -83 34t-28 130v391h76v-397q0 -55 13.5 -75t40.5 -20q61 0 65 97v395zM120 638l130 118l35 -67l-143 -87z" />
    <glyph glyph-name="ucircumflex" unicode="&#xfb;" horiz-adv-x="391" 
d="M251 540h76v-540h-47l-16 66q-23 -81 -97 -81q-55 0 -83 34t-28 130v391h76v-397q0 -55 13.5 -75t40.5 -20q61 0 65 97v395zM204 750l92 -116l-24 -34l-77 70l-77 -70l-23 34l90 116h19z" />
    <glyph glyph-name="udieresis" unicode="&#xfc;" horiz-adv-x="391" 
d="M251 540h76v-540h-47l-16 66q-23 -81 -97 -81q-55 0 -83 34t-28 130v391h76v-397q0 -55 13.5 -75t40.5 -20q61 0 65 97v395zM85 646v94h81v-94h-81zM225 646v94h80v-94h-80z" />
    <glyph glyph-name="yacute" unicode="&#xfd;" horiz-adv-x="349" 
d="M153.5 -166q-28.5 -29 -71 -29t-89.5 45l27 52q37 -33 64 -33q42 0 56 82l8 46l-132 543h77l86 -392l75 392h78l-138 -622q-12 -55 -40.5 -84zM114 638l130 118l35 -67l-143 -87z" />
    <glyph glyph-name="thorn" unicode="&#xfe;" horiz-adv-x="390" 
d="M136 741v-266q27 80 96 80q53 0 81 -45t28 -165v-150q0 -120 -28 -165t-81 -45q-73 0 -96 94v-259h-73v921h73zM136 270q0 -90 11.5 -142t26.5 -66.5t40 -14.5q54 0 54 124v198q0 124 -53 124q-23 0 -38.5 -14t-27.5 -62t-13 -133v-14z" />
    <glyph glyph-name="ydieresis" unicode="&#xff;" horiz-adv-x="349" 
d="M153.5 -166q-28.5 -29 -71 -29t-89.5 45l27 52q37 -33 64 -33q42 0 56 82l8 46l-132 543h77l86 -392l75 392h78l-138 -622q-12 -55 -40.5 -84zM72 646v94h81v-94h-81zM212 646v94h80v-94h-80z" />
    <glyph glyph-name="dotlessi" unicode="&#x131;" horiz-adv-x="203" 
d="M63 0v540h77v-540h-77z" />
    <glyph glyph-name="Lslash" unicode="&#x141;" horiz-adv-x="313" 
d="M63 700h80v-304l80 39v-54l-80 -39v-278h155v-64h-235v303l-45 -22v55l45 21v343z" />
    <glyph glyph-name="lslash" unicode="&#x142;" horiz-adv-x="203" 
d="M63 740h77v-336l64 31v-54l-64 -32v-349h-77v312l-64 -31v55l64 31v373z" />
    <glyph glyph-name="OE" unicode="&#x152;" horiz-adv-x="580" 
d="M362 491v-110h157v-64h-157v-108q0 -94 -23 -145h198v-64h-256q-30 -15 -75 -15q-76 0 -116.5 48.5t-40.5 175.5v282q0 127 40.5 175.5t116.5 48.5q45 0 75 -15h252v-64h-194q23 -52 23 -145zM283 194v312q0 144 -77 144q-37 0 -57.5 -31t-20.5 -113v-312
q0 -82 20.5 -113t57.5 -31q77 0 77 144z" />
    <glyph glyph-name="oe" unicode="&#x153;" horiz-adv-x="585" 
d="M493 19q-34 -34 -100 -34t-100 45q-33 -45 -102 -45t-105.5 45.5t-36.5 164.5v150q0 119 36.5 164.5t105.5 45.5t102 -45q34 45 103.5 45t104.5 -45t35 -165v-107h-205v-57q0 -134 64 -134q31 0 48 22t24 82l67 -11q-7 -87 -41 -121zM253 181v178q0 134 -63 134
q-65 0 -65 -134v-178q0 -134 65 -134q63 0 63 134zM331 359v-57h128v57q0 134 -63 134q-65 0 -65 -134z" />
    <glyph glyph-name="Scaron" unicode="&#x160;" horiz-adv-x="398" 
d="M278 157q0 80 -54 123l-80 59q-90 64 -90 189q0 104 39.5 145.5t108 41.5t106.5 -38.5t46 -139.5l-76 -17q-4 128 -74.5 128t-70.5 -109q0 -48 10.5 -78t40.5 -54l79 -59q28 -20 45 -38t32.5 -57.5t15.5 -93.5q0 -96 -41.5 -135t-112.5 -39t-111 46t-49 164l75 13
q4 -85 24.5 -121t57.5 -36q79 0 79 106zM196 760l-90 115l23 35l77 -70l77 70l24 -35l-92 -115h-19z" />
    <glyph glyph-name="scaron" unicode="&#x161;" horiz-adv-x="356" 
d="M241 121q0 57 -42 87l-69 49q-77 51 -77 151q0 81 34.5 114t93.5 33t92 -31t40 -113l-69 -14q-5 97 -61.5 97t-56.5 -79q0 -64 42 -95l66 -46q25 -17 39.5 -30.5t28 -45t13.5 -73.5q0 -77 -36 -108.5t-97.5 -31.5t-96.5 36.5t-43 128.5l71 13q4 -65 20.5 -91t45.5 -26
q62 0 62 75zM175 600l-90 115l23 35l77 -70l77 70l24 -35l-92 -115h-19z" />
    <glyph glyph-name="Ydieresis" unicode="&#x178;" horiz-adv-x="374" 
d="M226 0h-78v234l-132 466h78l93 -361l92 361h78l-131 -466v-234zM77 806v94h81v-94h-81zM217 806v94h80v-94h-80z" />
    <glyph glyph-name="Zcaron" unicode="&#x17d;" horiz-adv-x="351" 
d="M23 0v38l222 598h-203v64h286v-38l-222 -598h222v-64h-305zM179 760l-90 115l23 35l77 -70l77 70l24 -35l-92 -115h-19z" />
    <glyph glyph-name="zcaron" unicode="&#x17e;" horiz-adv-x="320" 
d="M30 0v41l177 437h-166v62h250v-41l-180 -437h181v-62h-262zM164 600l-90 115l23 35l77 -70l77 70l24 -35l-92 -115h-19z" />
    <glyph glyph-name="florin" unicode="&#x192;" horiz-adv-x="219" 
d="M191 688q-26 0 -38.5 -27.5t-12.5 -100.5v-94h63v-52h-63v-399q0 -119 -30.5 -164.5t-85.5 -45.5q-34 0 -61 12l15 65q19 -10 34 -10q25 0 38 27.5t13 100.5v414h-51v52h51v79q0 119 30.5 164.5t85.5 45.5q34 0 61 -12l-15 -65q-19 10 -34 10z" />
    <glyph glyph-name="circumflex" unicode="&#x2c6;" horiz-adv-x="263" 
d="M140 750l92 -116l-24 -34l-77 70l-77 -70l-23 34l90 116h19z" />
    <glyph glyph-name="caron" unicode="&#x2c7;" horiz-adv-x="263" 
d="M121 600l-90 115l23 35l77 -70l77 70l24 -35l-92 -115h-19z" />
    <glyph glyph-name="breve" unicode="&#x2d8;" horiz-adv-x="269" 
d="M144 613h-19q-49 0 -66 29.5t-17 85.5h41q0 -24 9 -35.5t36 -11.5h14q44 0 44 47h42q0 -56 -17.5 -85.5t-66.5 -29.5z" />
    <glyph glyph-name="dotaccent" unicode="&#x2d9;" horiz-adv-x="203" 
d="M60 646v94h83v-94h-83z" />
    <glyph glyph-name="ring" unicode="&#x2da;" horiz-adv-x="200" 
d="M176 697v-14q0 -56 -20 -76.5t-56 -20.5t-56 20.5t-20 76.5v14q0 56 20 76.5t56 20.5t56 -20.5t20 -76.5zM127 677v26q0 49 -27 49t-27 -49v-26q0 -49 27 -49t27 49z" />
    <glyph glyph-name="ogonek" unicode="&#x2db;" horiz-adv-x="245" 
d="M111 -198q-69 0 -69 81q0 58 59 117h48q-48 -55 -48 -108q0 -36 17 -36q26 0 44 63l41 -9q-25 -108 -92 -108z" />
    <glyph glyph-name="tilde" unicode="&#x2dc;" horiz-adv-x="300" 
d="M186 629q-14 0 -39.5 14.5t-37.5 14.5q-21 0 -45 -31l-23 38q33 63 73 63q14 0 39.5 -14t37.5 -14q22 0 44 30l24 -38q-37 -63 -73 -63z" />
    <glyph glyph-name="hungarumlaut" unicode="&#x2dd;" horiz-adv-x="358" 
d="M63 634l94 124l44 -60l-109 -96zM200 634l94 124l44 -60l-109 -96z" />
    <glyph glyph-name="pi" unicode="&#x3c0;" horiz-adv-x="480" 
d="M272 0v477h-108v-477h-79v477h-50v64h367v-64h-51v-477h-79z" />
    <glyph glyph-name="endash" unicode="&#x2013;" horiz-adv-x="401" 
d="M42 274v62h318v-62h-318z" />
    <glyph glyph-name="emdash" unicode="&#x2014;" horiz-adv-x="492" 
d="M42 274v62h408v-62h-408z" />
    <glyph glyph-name="quoteleft" unicode="&#x2018;" horiz-adv-x="163" 
d="M121 638v-92h-79v88l38 124l32 -6l-12 -114h21z" />
    <glyph glyph-name="quoteright" unicode="&#x2019;" horiz-adv-x="163" 
d="M42 654v92h79v-88l-39 -124l-30 6l12 114h-22z" />
    <glyph glyph-name="quotesinglbase" unicode="&#x201a;" horiz-adv-x="163" 
d="M42 0v92h79v-88l-39 -124l-30 6l12 114h-22z" />
    <glyph glyph-name="quotedblleft" unicode="&#x201c;" horiz-adv-x="276" 
d="M121 638v-92h-79v88l38 124l32 -6l-12 -114h21zM235 638v-92h-79v88l38 124l32 -6l-12 -114h21z" />
    <glyph glyph-name="quotedblright" unicode="&#x201d;" horiz-adv-x="276" 
d="M156 654v92h79v-88l-39 -124l-30 6l12 114h-22zM42 654v92h79v-88l-39 -124l-30 6l12 114h-22z" />
    <glyph glyph-name="quotedblbase" unicode="&#x201e;" horiz-adv-x="276" 
d="M156 0v92h79v-88l-39 -124l-30 6l12 114h-22zM42 0v92h79v-88l-39 -124l-30 6l12 114h-22z" />
    <glyph glyph-name="dagger" unicode="&#x2020;" horiz-adv-x="414" 
d="M361 636h-116v-636h-75v636h-117v64h117v183h75v-183h116v-64z" />
    <glyph glyph-name="daggerdbl" unicode="&#x2021;" horiz-adv-x="414" 
d="M361 183h-116v-183h-75v183h-117v64h117v389h-117v64h117v183h75v-183h116v-64h-116v-389h116v-64z" />
    <glyph glyph-name="bullet" unicode="&#x2022;" horiz-adv-x="202" 
d="M100 265l-73 85l73 85l75 -85z" />
    <glyph glyph-name="ellipsis" unicode="&#x2026;" horiz-adv-x="451" 
d="M42 0v92h79v-92h-79zM186 0v92h79v-92h-79zM330 0v92h79v-92h-79z" />
    <glyph glyph-name="perthousand" unicode="&#x2030;" horiz-adv-x="959" 
d="M220 -15l183 730h57l-183 -730h-57zM251 581v-170q0 -76 -27.5 -105t-78.5 -29t-78.5 29t-27.5 105v170q0 76 27.5 105t78.5 29t78.5 -29t27.5 -105zM187 402v188q0 76 -42.5 76t-42.5 -76v-188q0 -76 42.5 -76t42.5 76zM654 289v-170q0 -76 -27.5 -105t-78.5 -29
t-78.5 29t-27.5 105v170q0 76 27.5 105t78.5 29t78.5 -29t27.5 -105zM590 110v188q0 76 -42.5 76t-42.5 -76v-188q0 -76 42.5 -76t42.5 76zM921 289v-170q0 -76 -27.5 -105t-78.5 -29t-78.5 29t-27.5 105v170q0 76 27.5 105t78.5 29t78.5 -29t27.5 -105zM857 110v188
q0 76 -42.5 76t-42.5 -76v-188q0 -76 42.5 -76t42.5 76z" />
    <glyph glyph-name="guilsinglleft" unicode="&#x2039;" horiz-adv-x="197" 
d="M32 287v66l105 150l28 -26l-68 -157l68 -157l-28 -26z" />
    <glyph glyph-name="guilsinglright" unicode="&#x203a;" horiz-adv-x="197" 
d="M145 353v-66l-105 -150l-28 26l68 157l-68 157l28 26z" />
    <glyph glyph-name="fraction" unicode="&#x2044;" horiz-adv-x="292" 
d="M26 -15l183 730h57l-183 -730h-57z" />
    <glyph glyph-name="zeroinferior" unicode="&#x2080;" horiz-adv-x="290" 
d="M251 289v-170q0 -76 -27.5 -105t-78.5 -29t-78.5 29t-27.5 105v170q0 76 27.5 105t78.5 29t78.5 -29t27.5 -105zM187 110v188q0 76 -42.5 76t-42.5 -76v-188q0 -76 42.5 -76t42.5 76z" />
    <glyph glyph-name="oneinferior" unicode="&#x2081;" horiz-adv-x="177" 
d="M130 420v-420h-63v359h-56v35l78 26h41z" />
    <glyph glyph-name="twoinferior" unicode="&#x2082;" horiz-adv-x="272" 
d="M67.5 404.5q25.5 24.5 71.5 24.5t72 -23t26 -80t-39 -116l-106 -161h142v-49h-199v30q0 54 50 122l68 98q22 38 22 73q0 58 -38 58q-19 0 -29.5 -15.5t-13.5 -57.5l-58 8q6 64 31.5 88.5z" />
    <glyph glyph-name="threeinferior" unicode="&#x2083;" horiz-adv-x="276" 
d="M130 34q43 0 43 62v19q0 42 -11 55.5t-34 13.5h-31v45h35q38 0 38 61v22q0 63 -37 63q-20 0 -30 -15.5t-13 -57.5l-58 8q5 63 30.5 88t72.5 25t71.5 -25.5t24.5 -91.5t-31 -92q37 -27 37 -101t-28.5 -101t-76 -27t-71.5 24.5t-30 88.5l57 10q4 -42 14 -58t28 -16z" />
    <glyph glyph-name="fourinferior" unicode="&#x2084;" horiz-adv-x="269" 
d="M155 0v93h-142v33l96 294h109v-277h24v-50h-24v-93h-63zM155 143v235l-76 -235h76z" />
    <glyph glyph-name="fiveinferior" unicode="&#x2085;" horiz-adv-x="268" 
d="M48 192v222h180v-49h-119v-127h23q52 0 79 -25t27 -97.5t-27.5 -101.5t-74.5 -29t-71 24.5t-30 88.5l58 10q3 -42 13 -58t27 -16q42 0 42 76v17q0 37 -10.5 51t-32.5 14h-84z" />
    <glyph glyph-name="sixinferior" unicode="&#x2086;" horiz-adv-x="286" 
d="M251 113q0 -73 -28.5 -100.5t-79 -27.5t-77.5 27.5t-27 100.5v178q0 75 28 103.5t74 28.5t71 -22t30 -77l-60 -17q-3 38 -12 52.5t-26 14.5q-42 0 -42 -74v-83q22 25 51 25q98 0 98 -129zM190 105v19q0 72 -44 72t-44 -69v-22q0 -72 44 -72t44 72z" />
    <glyph glyph-name="seveninferior" unicode="&#x2087;" horiz-adv-x="226" 
d="M16 371v49h195v-33l-102 -387h-66l101 371h-128z" />
    <glyph glyph-name="eightinferior" unicode="&#x2088;" horiz-adv-x="283" 
d="M239 313q0 -82 -46 -103q55 -20 55 -109q0 -66 -27.5 -91t-79 -25t-79 25t-27.5 91q0 90 55 109q-48 21 -48 103q0 62 26 86t73 24t72.5 -24t25.5 -86zM184 99v20q0 66 -42 66q-45 0 -45 -66v-20q0 -66 45 -66q42 0 42 66zM180 289v30q0 56 -38.5 56t-38.5 -56v-30
q0 -56 38.5 -56t38.5 56z" />
    <glyph glyph-name="nineinferior" unicode="&#x2089;" horiz-adv-x="286" 
d="M219 13.5q-28 -28.5 -76 -28.5t-73.5 25.5t-30.5 89.5l56 9q4 -43 15 -59t31 -16t31 16t11 58v80q-25 -22 -50 -22q-98 0 -98 129q0 73 28 100.5t78.5 27.5t78 -27.5t27.5 -100.5v-178q0 -75 -28 -103.5zM96 303v-19q0 -72 43.5 -72t43.5 72v19q0 72 -43.5 72t-43.5 -72z
" />
    <glyph glyph-name="Euro" unicode="&#x20ac;" horiz-adv-x="384" 
d="M12 404v52h39v30q0 131 40.5 180t108.5 49t104 -32t44 -114l-74 -11q-6 53 -22 72.5t-49 19.5t-53.5 -31.5t-20.5 -115.5v-47h120v-52h-120v-98h120v-52h-120v-61q0 -81 20.5 -112t55.5 -31t52.5 23t23.5 88l73 -6q-8 -95 -45 -132.5t-107 -37.5t-110.5 49t-40.5 180v40
h-39v52h39v98h-39z" />
    <glyph glyph-name="trademark" unicode="&#x2122;" horiz-adv-x="544" 
d="M282 300h-54v455h83l52 -343l52 343h84v-455h-55v402l-54 -337h-55l-53 338v-403zM14 711v44h176v-44h-61v-411h-55v411h-60z" />
    <glyph glyph-name="Omega" unicode="&#x2126;" horiz-adv-x="465" 
d="M256 0v223q82 12 82 143v140q0 81 -27.5 112.5t-77.5 31.5t-78 -31.5t-28 -112.5v-140q0 -128 74 -143h6v-223h-161v64h92v111q-89 43 -89 206v110q0 127 47.5 175.5t136 48.5t136 -48.5t47.5 -175.5v-110q0 -163 -90 -206v-111h90v-64h-160z" />
    <glyph glyph-name="partialdiff" unicode="&#x2202;" horiz-adv-x="386" 
d="M272 463l1 57v38t-6.5 71.5t-17.5 65t-30 36t-34.5 15t-39.5 2.5v55q37 0 62 -4t53 -19.5t45 -43.5q39 -63 39 -198q0 -39 -31 -343q-12 -119 -52 -164.5t-101.5 -45.5t-92.5 33.5t-31 121.5q0 25 3 55l13 130q21 210 141 210q58 0 79 -72zM203 473q-29 0 -47.5 -29.5
t-25.5 -104.5q-18 -198 -18 -205q1 -87 52 -87q28 0 46.5 29.5t25.5 104.5q18 186 18 205q-1 87 -51 87z" />
    <glyph glyph-name="Delta" unicode="&#x2206;" horiz-adv-x="394" 
d="M250 700l128 -700h-362l128 700h106zM196 588l-89 -524h178z" />
    <glyph glyph-name="product" unicode="&#x220f;" horiz-adv-x="480" 
d="M308 -100v736h-137v-736h-79v736h-57v64h410v-64h-58v-736h-79z" />
    <glyph glyph-name="summation" unicode="&#x2211;" horiz-adv-x="353" 
d="M330 700v-64h-217l128 -336l-128 -336h224v-64h-321l149 400l-149 400h314z" />
    <glyph glyph-name="minus" unicode="&#x2212;" horiz-adv-x="377" 
d="M56 319v62h264v-62h-264z" />
    <glyph glyph-name="radical" unicode="&#x221a;" horiz-adv-x="462" 
d="M520 822v-64h-105l-170 -938h-98l-95 504h80l64 -380l151 878h173z" />
    <glyph glyph-name="infinity" unicode="&#x221e;" horiz-adv-x="484" 
d="M66 484.5q29 37.5 88.5 37.5t85.5 -57q24 57 86.5 57t91.5 -37.5t29 -134t-29 -134t-88.5 -37.5t-85.5 54q-26 -54 -87.5 -54t-90.5 37.5t-29 134t29 134zM326 241q63 0 63 109t-63 109q-26 0 -38.5 -20.5t-17.5 -66.5l-6 -49q13 -82 62 -82zM157 459q-61 0 -61 -109
t61 -109q27 0 39.5 19.5t17.5 63.5l6 52q-13 83 -63 83z" />
    <glyph glyph-name="integral" unicode="&#x222b;" horiz-adv-x="234" 
d="M241 638q-19 10 -39 10q-46 0 -46 -128v-505q0 -119 -30.5 -164.5t-85.5 -45.5q-35 0 -62 12l16 65q17 -10 38 -10q46 0 46 128v505q0 119 31 164.5t85 45.5q35 0 62 -12z" />
    <glyph glyph-name="approxequal" unicode="&#x2248;" horiz-adv-x="377" 
d="M56 481q26 -17 53.5 -17t78 16.5t79.5 16.5t53 -16v-62q-26 17 -54 17t-78 -17.5t-78.5 -17.5t-53.5 18v62zM56 281q25 -17 53 -17t78.5 16.5t79.5 16.5t53 -16v-62q-26 17 -54 17t-78 -17.5t-78.5 -17.5t-53.5 18v62z" />
    <glyph glyph-name="notequal" unicode="&#x2260;" horiz-adv-x="377" 
d="M56 419v62h137l59 234h57l-59 -234h70v-62h-86l-34 -138h120v-62h-136l-58 -234h-57l58 234h-71v62h87l34 138h-121z" />
    <glyph glyph-name="lessequal" unicode="&#x2264;" horiz-adv-x="377" 
d="M56 317v66l266 150v-66l-196 -117l196 -117v-66zM56 0v62h264v-62h-264z" />
    <glyph glyph-name="greaterequal" unicode="&#x2265;" horiz-adv-x="377" 
d="M322 383v-66l-266 -150v66l197 117l-197 117v66zM56 0v62h264v-62h-264z" />
    <glyph glyph-name="lozenge" unicode="&#x25ca;" horiz-adv-x="394" 
d="M250 700l114 -350l-114 -350h-106l-113 350l113 350h106zM110 350l86 -287l86 287l-86 286z" />
    <glyph glyph-name="fi" unicode="&#xfb01;" horiz-adv-x="401" 
d="M222 678q-17 10 -38 10q-46 0 -46 -128v-20h63v-62h-63v-478h-76v478h-43v62h43v5q0 119 30 164.5t84 45.5q34 0 62 -12zM259 0v540h77v-540h-77zM256 646v94h83v-94h-83z" />
    <glyph glyph-name="fl" unicode="&#xfb02;" horiz-adv-x="401" 
d="M222 678q-17 10 -38 10q-46 0 -46 -128v-20h63v-62h-63v-478h-76v478h-43v62h43v5q0 119 30 164.5t84 45.5q34 0 62 -12zM259 0v740h77v-740h-77z" />
    <glyph glyph-name="apple" horiz-adv-x="831" 
d="M530 -80l-21 1q-10 0 -27 -11t-25 -11l-41 9q-8 0 -21.5 -5.5t-21.5 -5.5t-22.5 11.5t-25.5 11.5l-22 -2q-14 0 -29 15.5t-21 19t-18 4.5t-20 5.5t-14.5 21t-11 20t-17.5 8.5t-18 13t-7 21t-5.5 18.5t-11.5 12.5q-20 16 -20 35l2 22q0 8 -11 24t-11 24t5.5 21t5.5 20.5
t-5.5 19t-5.5 20t11 27t11 26.5v22q0 13 14.5 26.5t17 18t4.5 18.5t5.5 20t17.5 11.5t18.5 9.5t11 18t10.5 19q7 6 23.5 9t22 6t18.5 18t26 16l24 -2q11 0 25.5 10.5t23.5 10.5l40 -11l40 11q12 0 26.5 -11t25.5 -11l25 2q14 0 26 -14.5t17.5 -17.5t19.5 -6t20.5 -7.5
t11 -17.5t9 -17t22.5 -13.5t22.5 -17t5 -22t3 -18.5t17.5 -16.5t15 -27.5l-1 -22q0 -12 11 -29t11 -25t-5 -19.5t-5 -16.5l10 -40q-1 -8 -12 -19.5t-11 -23.5l2 -29q0 -15 -14.5 -26.5t-17 -15.5t-6 -21.5t-8.5 -23t-16.5 -11t-16 -10t-12.5 -19.5t-14 -19t-22 -8.5
t-20.5 -7t-16.5 -14.5t-26 -12zM416 -5l29 -7q6 0 17 7q13 9 23 9l14 -1q10 0 18 9t11.5 10.5t15.5 5t16.5 6.5t10 13.5t9 13.5t12 7t11.5 8.5t6 16.5t5 15.5t12 12t10 20.5l-1 18q0 9 8 18.5t9 14.5l-8 28l8 26q0 7 -8.5 19.5t-8.5 20.5l1 15q0 11 -10.5 20t-12.5 13
t-2.5 14.5t-3.5 15t-15.5 11t-16.5 10t-7 13t-8 13t-15 5t-14 4t-13 13.5t-19 11l-18 -2q-9 0 -18 8t-18 8l-30 -8l-29 8q-7 0 -18 -7.5t-20 -7.5l-15 1q-10 0 -19.5 -11.5t-13 -13.5t-16 -4t-16.5 -6t-9 -14t-8 -13.5t-13 -7.5t-13 -8t-4 -14t-2.5 -13t-13 -13t-11.5 -20
l1 -14q0 -8 -7.5 -21t-7.5 -21l7 -27l-7 -30q0 -7 7.5 -18t7.5 -18l-2 -15q0 -10 11 -20l12 -11q4 -6 5.5 -16t4.5 -16t12.5 -9t13 -6t8.5 -15t10.5 -15.5t14 -4t13.5 -3t15.5 -13.5t20.5 -11l13 1q9 0 20 -8t16 -9zM307.5 330.5q44.5 44.5 108 44.5t108.5 -44.5t45 -108
t-45 -108.5t-108.5 -45t-108 45t-44.5 108.5t44.5 108zM454 263h47v61h-172v-61h49v-158h76v158z" />
    </font>
</defs>
</svg>
